<svg xmlns="http://www.w3.org/2000/svg" xmlns:xlink="http://www.w3.org/1999/xlink" version="1.2" viewBox="0 0 126.861 126.85" baseProfile="tiny-ps">  <title>MTX</title>  <circle cx="63.425" cy="63.425" r="63.425" fill="#FFFFFF"/>  <path id="M" d="M6.623,82.001V44.849h6.984l17.496,22.464l17.136-22.464h6.912v37.152h-7.992V59.033  c0-0.912,0.096-2.232,0.288-3.961c-0.912,1.872-1.632,3.169-2.16,3.889L31.319,77.537h-1.728L15.623,58.889  c-1.008-1.343-1.753-2.615-2.232-3.816c0.144,1.489,0.216,2.809,0.216,3.961v22.968H6.623z" fill="#58595B"/>  <path id="T_2_" d="M68.076,41.537V82h-8.64V41.537H6.623v-6.624h113.615v6.624H68.076z" fill="#58595B"/>  <path id="X_1_" d="M89.783,62.921L71.855,44.849h11.447l11.881,12.6l11.303-12.6h9.936l-16.199,17.064  l20.016,20.088h-11.736l-13.607-14.4L61.71,105.745H50.184L89.783,62.921z" fill="#1B75BB"/></svg>